HIERARCHY
ROOT Hips
{
    OFFSET 0.000000 0.000000 0.000000
    CHANNELS 6 Xposition Yposition Zposition Zrotation Xrotation Yrotation
    JOINT Spine
    {
        OFFSET -0.000000 7.236184 0.000000
        CHANNELS 3 Zrotation Xrotation Yrotation
        JOINT Spine1
        {
            OFFSET -0.000000 20.420147 0.000000
            CHANNELS 3 Zrotation Xrotation Yrotation
            JOINT Neck
            {
                OFFSET -0.000000 20.336288 1.848754
                CHANNELS 3 Zrotation Xrotation Yrotation
                JOINT Head
                {
                    OFFSET -0.000000 12.354461 -1.764923
                    CHANNELS 3 Zrotation Xrotation Yrotation
                    End Site
                    {
                        OFFSET -0.000000 22.061537 0.000000
                    }
                }
            }
            JOINT LeftShoulder
            {
                OFFSET 3.573296 18.396038 -0.314103
                CHANNELS 3 Zrotation Xrotation Yrotation
                JOINT LeftArm
                {
                    OFFSET 10.880760 0.000000 0.000000
                    CHANNELS 3 Zrotation Xrotation Yrotation
                    JOINT LeftForeArm
                    {
                        OFFSET 27.185530 0.000000 0.000000
                        CHANNELS 3 Zrotation Xrotation Yrotation
                        JOINT LeftHand
                        {
                            OFFSET 27.825975 0.000000 0.000000
                            CHANNELS 3 Zrotation Xrotation Yrotation
                            End Site
                            {
                                OFFSET 13.236923 0.000000 0.000000
                            }
                        }
                    }
                }
            }
            JOINT RightShoulder
            {
                OFFSET -3.474926 18.396038 -0.314103
                CHANNELS 3 Zrotation Xrotation Yrotation
                JOINT RightArm
                {
                    OFFSET -10.880760 0.000000 0.000000
                    CHANNELS 3 Zrotation Xrotation Yrotation
                    JOINT RightForeArm
                    {
                        OFFSET -27.185530 0.000000 0.000000
                        CHANNELS 3 Zrotation Xrotation Yrotation
                        JOINT RightHand
                        {
                            OFFSET -27.825975 0.000000 0.000000
                            CHANNELS 3 Zrotation Xrotation Yrotation
                            End Site
                            {
                                OFFSET -13.236923 0.000000 0.000000
                            }
                        }
                    }
                }
            }
        }
    }
    JOINT LeftUpLeg
    {
        OFFSET 8.824615 0.000000 0.000000
        CHANNELS 3 Zrotation Xrotation Yrotation
        JOINT LeftLeg
        {
            OFFSET -0.000000 -35.111282 0.000000
            CHANNELS 3 Zrotation Xrotation Yrotation
            JOINT LeftFoot
            {
                OFFSET -0.000000 -42.324711 0.000000
                CHANNELS 3 Zrotation Xrotation Yrotation
                JOINT LeftToeBase
                {
                    OFFSET -0.000000 -5.735999 13.236923
                    CHANNELS 3 Zrotation Xrotation Yrotation
                    End Site
                    {
                        OFFSET -0.000000 0.000000 3.529846
                    }
                }
            }
        }
    }
    JOINT RightUpLeg
    {
        OFFSET -8.824615 0.000000 0.000000
        CHANNELS 3 Zrotation Xrotation Yrotation
        JOINT RightLeg
        {
            OFFSET -0.000000 -35.111282 0.000000
            CHANNELS 3 Zrotation Xrotation Yrotation
            JOINT RightFoot
            {
                OFFSET -0.000000 -42.324711 0.000000
                CHANNELS 3 Zrotation Xrotation Yrotation
                JOINT RightToeBase
                {
                    OFFSET -0.000000 -5.735999 13.236923
                    CHANNELS 3 Zrotation Xrotation Yrotation
                    End Site
                    {
                        OFFSET -0.000000 0.000000 3.529846
                    }
                }
            }
        }
    }
}
MOTION
Frames:    8
Frame Time:    0.008333
-10.185898    85.120979    103.914032    1.948488    -4.966333    177.422455    -1.967019    -11.529672    -0.586814    3.300929    7.282513    -0.598383    4.067580    8.525062    -3.401492    7.414873    -1.753270    -2.662937    -0.490785    16.997566    0.006269    -48.172153    42.963005    -30.714470    -3.531721    -3.966014    -12.058260    21.997192    -3.782092    2.867815    7.638898    17.222012    -8.130561    47.752998    34.007347    29.072170    -2.359756    -9.745034    15.619653    -18.403168    -8.720783    -4.404798    3.864320    -11.697590    -2.025295    -1.291941    19.838593    12.515855    -2.838706    -10.559048    -14.485975    -0.081246    -2.179283    0.090419    -22.022148    -28.769272    -11.389554    13.709948    42.865429    -6.901327    16.710495    5.566356    -3.079431    0.427295    -6.555492    -0.466576
-10.455760    85.137054    104.020096    2.055168    -4.909721    176.784378    -1.820551    -11.333085    -0.632777    3.468867    7.307461    -0.673950    4.147904    8.549754    -3.274734    7.304170    -1.750564    -2.553405    -0.479095    16.939289    -0.009719    -48.097263    42.711777    -30.653917    -3.445979    -4.316075    -12.272022    22.221081    -4.109103    2.943145    7.620731    17.214594    -8.107435    47.838867    33.646519    28.914734    -2.354819    -9.750089    15.444387    -18.529037    -8.716701    -4.457662    3.868191    -11.654174    -1.886899    -1.390679    19.920214    12.961986    -2.727152    -10.651628    -14.412501    -0.072327    -2.178470    0.080492    -22.852118    -30.095608    -12.355726    14.319315    44.625809    -7.282763    16.794041    5.703473    -3.200739    0.454490    -6.493658    -0.496224
-10.711213    85.146851    104.121658    2.161944    -4.849179    176.183807    -1.674160    -11.143727    -0.679699    3.622260    7.349190    -0.749246    4.225184    8.576678    -3.152909    7.196144    -1.756057    -2.447749    -0.471777    16.883787    -0.024021    -48.025490    42.442204    -30.596401    -3.363128    -4.622914    -12.462897    22.400095    -4.394631    3.010908    7.600263    17.202543    -8.082246    47.921490    33.319637    28.762234    -2.347632    -9.754007    15.261509    -18.642500    -8.712018    -4.512259    3.881319    -11.631719    -1.731632    -1.485335    20.037113    13.379644    -2.633345    -10.746703    -14.363095    -0.066446    -2.185068    0.073947    -23.690748    -31.376095    -13.341667    14.934382    46.352463    -7.680176    16.840788    5.813026    -3.318438    0.470035    -6.426301    -0.513143
-10.964071    85.149918    104.223015    2.272268    -4.781209    175.592987    -1.523160    -10.952462    -0.729054    3.768573    7.408580    -0.827156    4.298255    8.608282    -3.031699    7.094676    -1.769925    -2.340656    -0.468398    16.827576    -0.037447    -47.957584    42.141209    -30.537514    -3.278324    -4.897463    -12.638697    22.542955    -4.648604    3.074330    7.577196    17.187914    -8.054059    48.003754    33.006355    28.609482    -2.333804    -9.751635    15.061893    -18.744431    -8.702559    -4.566907    3.903379    -11.627943    -1.550722    -1.580885    20.194910    13.785621    -2.551071    -10.850918    -14.334145    -0.063256    -2.196855    0.070399    -24.579851    -32.665962    -14.383862    15.595921    48.120655    -8.116464    16.853355    5.903740    -3.438754    0.478338    -6.352028    -0.522147
-11.189571    85.145638    104.313637    2.373213    -4.711980    175.069397    -1.384930    -10.777993    -0.775124    3.893693    7.477652    -0.899134    4.358142    8.642112    -2.923883    7.013988    -1.789659    -2.242864    -0.468832    16.776339    -0.049506    -47.902515    41.839478    -30.482794    -3.199606    -5.113274    -12.781616    22.638311    -4.846637    3.127097    7.555385    17.175518    -8.025980    48.077145    32.729919    28.473024    -2.310986    -9.738235    14.865911    -18.822437    -8.685537    -4.611901    3.930415    -11.639731    -1.363768    -1.669062    20.374264    14.140299    -2.485980    -10.954798    -14.326074    -0.062533    -2.210879    0.069596    -25.431322    -33.833130    -15.367066    16.249723    49.748131    -8.554205    16.832542    5.970688    -3.549734    0.482261    -6.279599    -0.526372
-11.435596    85.132629    104.412285    2.484131    -4.625484    174.501617    -1.233787    -10.582010    -0.827211    4.025095    7.569166    -0.979426    4.415653    8.687152    -2.807636    6.941187    -1.819446    -2.133829    -0.473434    16.719776    -0.064281    -47.848907    41.473236    -30.420746    -3.110652    -5.317998    -12.920508    22.707651    -5.032891    3.179423    7.533307    17.166647    -7.992342    48.154102    32.424500    28.325565    -2.271422    -9.706861    14.632544    -18.891527    -8.654165    -4.653258    3.966751    -11.665821    -1.132756    -1.770495    20.609772    14.520367    -2.422498    -11.079419    -14.335670    -0.063671    -2.228749    0.070866    -26.428238    -35.121704    -16.496515    17.043032    51.575478    -9.091651    16.776434    6.030921    -3.678365    0.485628    -6.192894    -0.529976
-11.635103    85.113983    104.491898    2.573788    -4.545124    174.044022    -1.112097    -10.418383    -0.870774    4.126600    7.657339    -1.045716    4.455048    8.729919    -2.715103    6.898002    -1.848354    -2.043592    -0.480638    16.673561    -0.078272    -47.812752    41.140640    -30.370165    -3.035703    -5.456926    -13.014518    22.731037    -5.158186    3.214721    7.519372    17.166130    -7.963022    48.212116    32.171543    28.208612    -2.223512    -9.663505    14.424901    -18.930967    -8.615181    -4.677616    4.002216    -11.697590    -0.921503    -1.859072    20.835556    14.823410    -2.376797    -11.189043    -14.359252    -0.066088    -2.246359    0.073558    -27.300604    -36.178120    -17.456915    17.777294    53.100189    -9.597310    16.701548    6.070441    -3.787991    0.488869    -6.118809    -0.533452
-11.859960    85.084351    104.581024    2.673202    -4.443397    173.530991    -0.978978    -10.229517    -0.920931    4.236222    7.771325    -1.121220    4.493932    8.785935    -2.612959    6.864177    -1.886146    -1.940780    -0.492200    16.621958    -0.098252    -47.778091    40.727879    -30.313808    -2.948992    -5.589192    -13.099320    22.724447    -5.276889    3.245503    7.511008    17.173843    -7.928183    48.268867    31.879948    28.079670    -2.152284    -9.594748    14.172374    -18.956709    -8.556041    -4.694456    4.047886    -11.741747    -0.659356    -1.967134    21.122684    15.160812    -2.329925    -11.318774    -14.401772    -0.070664    -2.270505    0.078655    -28.353968    -37.379730    -18.590555    18.707302    54.860233    -10.248836    16.591324    6.108029    -3.922348    0.494329    -6.029410    -0.539336
